<svg width="280" height="41" viewBox="0 0 280 41" fill="none" xmlns="http://www.w3.org/2000/svg">
<g id="Frame 1">
<rect id="Rectangle 4" width="200" height="40" rx="20" fill="#FAFAFA"/>
<g id="Group 27">
<g id="Cart">
<rect id="Rectangle 223" x="210.5" y="1.5" width="69" height="39" rx="19.5" stroke="#E0E0E0"/>
<g id="Cart Icon">
<circle id="Ellipse 59" cx="231.5" cy="21" r="17.5" fill="#274C5B"/>
</g>
<g id="Icon">
<path id="Vector" d="M230.401 27.0003C230.774 27.0003 231.076 26.7018 231.076 26.3337C231.076 25.9655 230.774 25.667 230.401 25.667C230.028 25.667 229.726 25.9655 229.726 26.3337C229.726 26.7018 230.028 27.0003 230.401 27.0003Z" fill="white" stroke="white" stroke-width="1.5" stroke-linecap="round" stroke-linejoin="round"/>
<path id="Vector_2" d="M235.128 27.0003C235.501 27.0003 235.803 26.7018 235.803 26.3337C235.803 25.9655 235.501 25.667 235.128 25.667C234.755 25.667 234.453 25.9655 234.453 26.3337C234.453 26.7018 234.755 27.0003 235.128 27.0003Z" fill="white" stroke="white" stroke-width="1.5" stroke-linecap="round" stroke-linejoin="round"/>
<path id="Vector_3" d="M225 15H227.089L228.656 23.7671H237.013" stroke="white" stroke-width="2" stroke-linecap="round" stroke-linejoin="round"/>
<path id="Vector_4" d="M228.376 21.6456L236.799 21.704C236.859 21.704 236.918 21.6834 236.965 21.6456C237.011 21.6078 237.043 21.5552 237.055 21.4967L237.995 16.8553C238.003 16.8179 238.002 16.7793 237.993 16.7423C237.983 16.7052 237.966 16.6707 237.941 16.6412C237.917 16.6117 237.886 16.5879 237.851 16.5716C237.816 16.5553 237.778 16.5468 237.739 16.5469L227.523 16.5469" stroke="white" stroke-width="2" stroke-linecap="round" stroke-linejoin="round"/>
</g>
</g>
</g>
</g>
</svg>
